<svg width="72" height="72" viewBox="0 0 72 72" fill="none" xmlns="http://www.w3.org/2000/svg">
<path d="M54 38.9941H39V53.9941C39 54.7898 38.6839 55.5529 38.1213 56.1155C37.5587 56.6781 36.7956 56.9941 36 56.9941C35.2044 56.9941 34.4413 56.6781 33.8787 56.1155C33.3161 55.5529 33 54.7898 33 53.9941V38.9941H18C17.2044 38.9941 16.4413 38.6781 15.8787 38.1155C15.3161 37.5529 15 36.7898 15 35.9941C15 35.1985 15.3161 34.4354 15.8787 33.8728C16.4413 33.3102 17.2044 32.9941 18 32.9941H33V17.9941C33 17.1985 33.3161 16.4354 33.8787 15.8728C34.4413 15.3102 35.2044 14.9941 36 14.9941C36.7956 14.9941 37.5587 15.3102 38.1213 15.8728C38.6839 16.4354 39 17.1985 39 17.9941V32.9941H54C54.7957 32.9941 55.5587 33.3102 56.1213 33.8728C56.6839 34.4354 57 35.1985 57 35.9941C57 36.7898 56.6839 37.5529 56.1213 38.1155C55.5587 38.6781 54.7957 38.9941 54 38.9941Z" fill="white"/>
</svg>
