<svg width="64" height="59" viewBox="0 0 64 59" fill="none" xmlns="http://www.w3.org/2000/svg">
<path d="M16.3575 23.9687C16.3575 24.4578 16.1496 24.9267 15.7793 25.2724C15.4092 25.6183 14.9071 25.8125 14.3835 25.8125C13.8599 25.8125 13.3579 25.6183 12.9877 25.2724C12.6174 24.9267 12.4095 24.4578 12.4095 23.9687C12.4095 23.4797 12.6174 23.0108 12.9877 22.6651C13.3579 22.3192 13.8599 22.125 14.3835 22.125C14.9071 22.125 15.4092 22.3192 15.7793 22.6651C16.1496 23.0108 16.3575 23.4797 16.3575 23.9687ZM14.3835 40.5625C14.9071 40.5625 15.4092 40.3683 15.7793 40.0224C16.1496 39.6767 16.3575 39.2078 16.3575 38.7188C16.3575 38.2297 16.1496 37.7608 15.7793 37.4151C15.4092 37.0692 14.9071 36.875 14.3835 36.875C13.8599 36.875 13.3579 37.0692 12.9877 37.4151C12.6174 37.7608 12.4095 38.2297 12.4095 38.7188C12.4095 39.2078 12.6174 39.6767 12.9877 40.0224C13.3579 40.3683 13.8599 40.5625 14.3835 40.5625ZM0.56543 11.0625C0.56543 8.12848 1.81327 5.31476 4.03448 3.24013C6.25569 1.16549 9.2682 0 12.4095 0H43.9938C47.1351 0 50.1476 1.16549 52.3688 3.24013C54.5899 5.31476 55.8378 8.12848 55.8378 11.0625V24.3375C52.7827 22.878 49.3993 22.1196 45.9678 22.125H26.2276C25.704 22.125 25.202 22.3192 24.8318 22.6651C24.4615 23.0108 24.2536 23.4797 24.2536 23.9687C24.2536 24.4578 24.4615 24.9267 24.8318 25.2724C25.202 25.6183 25.704 25.8125 26.2276 25.8125H33.4802C30.628 27.6825 28.3003 30.167 26.6941 33.0555C25.0881 35.9441 24.251 39.1514 24.2536 42.4062C24.2536 45.725 25.1064 48.8594 26.6224 51.625H12.4095C9.2682 51.625 6.25569 50.4594 4.03448 48.3849C1.81327 46.3102 0.56543 43.4965 0.56543 40.5625V11.0625ZM10.4355 7.375C9.9119 7.375 9.40984 7.56921 9.03971 7.91506C8.66942 8.26077 8.46149 8.7297 8.46149 9.21875C8.46149 9.7078 8.66942 10.1767 9.03971 10.5224C9.40984 10.8683 9.9119 11.0625 10.4355 11.0625H45.9678C46.4914 11.0625 46.9934 10.8683 47.3636 10.5224C47.7339 10.1767 47.9418 9.7078 47.9418 9.21875C47.9418 8.7297 47.7339 8.26077 47.3636 7.91506C46.9934 7.56921 46.4914 7.375 45.9678 7.375H10.4355ZM14.3835 29.5C15.9542 29.5 17.4604 28.9172 18.5711 27.88C19.6816 26.8425 20.3056 25.4358 20.3056 23.9687C20.3056 22.5017 19.6816 21.0948 18.5711 20.0575C17.4604 19.0203 15.9542 18.4375 14.3835 18.4375C12.8129 18.4375 11.3065 19.0203 10.196 20.0575C9.08544 21.0948 8.46149 22.5017 8.46149 23.9687C8.46149 25.4358 9.08544 26.8425 10.196 27.88C11.3065 28.9172 12.8129 29.5 14.3835 29.5ZM20.3056 38.7188C20.3056 37.2517 19.6816 35.8448 18.5711 34.8075C17.4604 33.7703 15.9542 33.1875 14.3835 33.1875C12.8129 33.1875 11.3065 33.7703 10.196 34.8075C9.08544 35.8448 8.46149 37.2517 8.46149 38.7188C8.46149 40.1858 9.08544 41.5927 10.196 42.63C11.3065 43.6672 12.8129 44.25 14.3835 44.25C15.9542 44.25 17.4604 43.6672 18.5711 42.63C19.6816 41.5927 20.3056 40.1858 20.3056 38.7188ZM63.7339 42.4062C63.7339 46.8071 61.862 51.0279 58.5302 54.1397C55.1986 57.2517 50.6796 59 45.9678 59C41.256 59 36.7369 57.2517 33.4051 54.1397C30.0735 51.0279 28.2016 46.8071 28.2016 42.4062C28.2016 38.0054 30.0735 33.7846 33.4051 30.6726C36.7369 27.5608 41.256 25.8125 45.9678 25.8125C50.6796 25.8125 55.1986 27.5608 58.5302 30.6726C61.862 33.7846 63.7339 38.0054 63.7339 42.4062ZM47.9418 35.0312C47.9418 34.5422 47.7339 34.0733 47.3636 33.7276C46.9934 33.3817 46.4914 33.1875 45.9678 33.1875C45.4442 33.1875 44.9421 33.3817 44.572 33.7276C44.2017 34.0733 43.9938 34.5422 43.9938 35.0312V40.5625H38.0717C37.5481 40.5625 37.046 40.7567 36.6759 41.1026C36.3056 41.4483 36.0977 41.9172 36.0977 42.4062C36.0977 42.8953 36.3056 43.3642 36.6759 43.7099C37.046 44.0558 37.5481 44.25 38.0717 44.25H43.9938V49.7812C43.9938 50.2703 44.2017 50.7392 44.572 51.0849C44.9421 51.4308 45.4442 51.625 45.9678 51.625C46.4914 51.625 46.9934 51.4308 47.3636 51.0849C47.7339 50.7392 47.9418 50.2703 47.9418 49.7812V44.25H53.8638C54.3874 44.25 54.8895 44.0558 55.2596 43.7099C55.6299 43.3642 55.8378 42.8953 55.8378 42.4062C55.8378 41.9172 55.6299 41.4483 55.2596 41.1026C54.8895 40.7567 54.3874 40.5625 53.8638 40.5625H47.9418V35.0312Z" fill="white"/>
</svg>
