<svg width="72" height="72" viewBox="0 0 72 72" fill="none" xmlns="http://www.w3.org/2000/svg">
<path d="M15.75 15.75L18.5625 60.75C18.6961 63.3502 20.5875 65.25 23.0625 65.25H48.9375C51.4223 65.25 53.2786 63.3502 53.4375 60.75L56.25 15.75" stroke="#D01D1D" stroke-width="4.5" stroke-linecap="round" stroke-linejoin="round"/>
<path d="M11.25 15.75H60.75H11.25Z" fill="#D01D1D"/>
<path d="M11.25 15.75H60.75" stroke="#D01D1D" stroke-width="4.5" stroke-miterlimit="10" stroke-linecap="round"/>
<path d="M27 15.75V10.125C26.9987 9.68144 27.0851 9.24198 27.2543 8.83192C27.4234 8.42186 27.672 8.04929 27.9856 7.73563C28.2993 7.42197 28.6718 7.17342 29.0819 7.00427C29.492 6.83513 29.9314 6.74871 30.375 6.75001H41.625C42.0686 6.74871 42.508 6.83513 42.9181 7.00427C43.3282 7.17342 43.7007 7.42197 44.0144 7.73563C44.328 8.04929 44.5766 8.42186 44.7457 8.83192C44.9149 9.24198 45.0013 9.68144 45 10.125V15.75M36 24.75V56.25M25.875 24.75L27 56.25M46.125 24.75L45 56.25" stroke="#D01D1D" stroke-width="4.5" stroke-linecap="round" stroke-linejoin="round"/>
</svg>
